<svg xmlns="http://www.w3.org/2000/svg" version="1.1" xmlns:xlink="http://www.w3.org/1999/xlink" width="200" height="200"><svg xmlns="http://www.w3.org/2000/svg" version="1.1" xmlns:xlink="http://www.w3.org/1999/xlink" viewBox="0 0 200 200"><rect width="200" height="200" fill="url('#gradient')"></rect><defs><linearGradient id="SvgjsLinearGradient1001" gradientTransform="rotate(128 0.5 0.5)"><stop offset="0%" stop-color="#893e77"></stop><stop offset="100%" stop-color="#212121"></stop></linearGradient></defs><g><g fill="#431824" transform="matrix(4.101696801112657,0,0,4.101696801112657,23.602966282523553,129.1624396700322)" stroke="#4d1f42" stroke-width="0.65"><path d="M10.03-8.30L10.03-5.66L4.50-5.66L4.50 0L1.07 0L1.07-14.22L10.59-14.22L10.59-11.57L4.50-11.57L4.50-8.30L10.03-8.30ZM19.10-14.22L19.10 0L15.80 0L15.80-10.51L12.56-9.56L12.56-12.06L18.80-14.22L19.10-14.22ZM32.50 0L31.67-2.66L26.97-2.66L26.15 0L22.49 0L27.71-14.22L30.93-14.22L36.18 0L32.50 0ZM29.32-10.23L27.79-5.30L30.85-5.30L29.32-10.23Z"></path></g></g></svg><style>@media (prefers-color-scheme: light) { :root { filter: none; } }
@media (prefers-color-scheme: dark) { :root { filter: none; } }
</style></svg>